STARTFONT 2.1
FONT NYEH HEH HEH!
SIZE 8 72 72
FONTBOUNDINGBOX 14 16 0 -5
STARTPROPERTIES 9
DEFAULT_CHAR 126
FACE_NAME "NYEH HEH HEH!"
FONT_ASCENT 11
FONT_DESCENT 5
PIXEL_SIZE 8
POINT_SIZE 80
RESOLUTION_X 72
RESOLUTION_Y 72
_GBDFED_INFO "Edited with gbdfed 1.6."
ENDPROPERTIES
CHARS 95
STARTCHAR 
ENCODING 32
SWIDTH 1375 0
DWIDTH 11 0
BBX 0 0 0 0
BITMAP
ENDCHAR
STARTCHAR !
ENCODING 33
SWIDTH 375 0
DWIDTH 3 0
BBX 2 7 0 1
BITMAP
C0
C0
C0
C0
C0
00
C0
ENDCHAR
STARTCHAR char34
ENCODING 34
SWIDTH 875 0
DWIDTH 7 0
BBX 7 3 0 5
BITMAP
EE
66
CC
ENDCHAR
STARTCHAR #
ENCODING 35
SWIDTH 875 0
DWIDTH 7 0
BBX 6 6 0 1
BITMAP
78
D8
F0
FC
F8
F0
ENDCHAR
STARTCHAR $
ENCODING 36
SWIDTH 875 0
DWIDTH 7 0
BBX 6 6 0 1
BITMAP
38
70
38
3C
F8
70
ENDCHAR
STARTCHAR %
ENCODING 37
SWIDTH 1000 0
DWIDTH 8 0
BBX 7 6 0 1
BITMAP
F8
F8
F0
7E
76
DC
ENDCHAR
STARTCHAR &
ENCODING 38
SWIDTH 1000 0
DWIDTH 8 0
BBX 7 6 0 1
BITMAP
78
C0
76
FE
CC
F8
ENDCHAR
STARTCHAR '
ENCODING 39
SWIDTH 500 0
DWIDTH 4 0
BBX 3 3 0 5
BITMAP
E0
60
C0
ENDCHAR
STARTCHAR (
ENCODING 40
SWIDTH 625 0
DWIDTH 5 0
BBX 4 11 0 -2
BITMAP
30
60
C0
C0
C0
C0
C0
C0
60
60
30
ENDCHAR
STARTCHAR )
ENCODING 41
SWIDTH 625 0
DWIDTH 5 0
BBX 4 11 0 -2
BITMAP
C0
60
60
30
30
30
30
30
60
60
C0
ENDCHAR
STARTCHAR *
ENCODING 42
SWIDTH 625 0
DWIDTH 5 0
BBX 4 3 0 2
BITMAP
F0
F0
F0
ENDCHAR
STARTCHAR +
ENCODING 43
SWIDTH 875 0
DWIDTH 7 0
BBX 6 5 0 2
BITMAP
30
30
FC
30
30
ENDCHAR
STARTCHAR ,
ENCODING 44
SWIDTH 500 0
DWIDTH 4 0
BBX 3 3 0 -1
BITMAP
E0
60
C0
ENDCHAR
STARTCHAR -
ENCODING 45
SWIDTH 750 0
DWIDTH 6 0
BBX 5 1 0 1
BITMAP
F8
ENDCHAR
STARTCHAR .
ENCODING 46
SWIDTH 375 0
DWIDTH 3 0
BBX 2 1 0 1
BITMAP
C0
ENDCHAR
STARTCHAR /
ENCODING 47
SWIDTH 1125 0
DWIDTH 9 0
BBX 8 8 0 1
BITMAP
03
03
06
0C
18
30
60
C0
ENDCHAR
STARTCHAR 0
ENCODING 48
SWIDTH 1000 0
DWIDTH 8 0
BBX 7 6 0 1
BITMAP
1C
F6
C6
C6
C6
7C
ENDCHAR
STARTCHAR 1
ENCODING 49
SWIDTH 500 0
DWIDTH 4 0
BBX 3 7 0 1
BITMAP
60
E0
60
60
60
60
60
ENDCHAR
STARTCHAR 2
ENCODING 50
SWIDTH 875 0
DWIDTH 7 0
BBX 6 6 0 1
BITMAP
F0
30
30
60
60
FC
ENDCHAR
STARTCHAR 3
ENCODING 51
SWIDTH 750 0
DWIDTH 6 0
BBX 5 8 0 0
BITMAP
F0
60
70
D8
18
30
30
E0
ENDCHAR
STARTCHAR 4
ENCODING 52
SWIDTH 1000 0
DWIDTH 8 0
BBX 7 6 0 1
BITMAP
18
38
78
FE
18
18
ENDCHAR
STARTCHAR 5
ENCODING 53
SWIDTH 750 0
DWIDTH 6 0
BBX 5 8 0 0
BITMAP
78
C0
F8
18
18
30
60
C0
ENDCHAR
STARTCHAR 6
ENCODING 54
SWIDTH 750 0
DWIDTH 6 0
BBX 5 7 0 1
BITMAP
18
30
60
C0
F8
D8
F0
ENDCHAR
STARTCHAR 7
ENCODING 55
SWIDTH 750 0
DWIDTH 6 0
BBX 5 7 0 1
BITMAP
78
18
30
60
60
C0
C0
ENDCHAR
STARTCHAR 8
ENCODING 56
SWIDTH 750 0
DWIDTH 6 0
BBX 5 6 0 1
BITMAP
78
D8
70
D8
D8
F0
ENDCHAR
STARTCHAR 9
ENCODING 57
SWIDTH 875 0
DWIDTH 7 0
BBX 6 8 0 0
BITMAP
1C
7C
6C
3C
18
30
60
C0
ENDCHAR
STARTCHAR :
ENCODING 58
SWIDTH 375 0
DWIDTH 3 0
BBX 2 3 0 2
BITMAP
C0
00
C0
ENDCHAR
STARTCHAR ;
ENCODING 59
SWIDTH 500 0
DWIDTH 4 0
BBX 3 6 0 -1
BITMAP
60
00
00
60
C0
C0
ENDCHAR
STARTCHAR <
ENCODING 60
SWIDTH 875 0
DWIDTH 7 0
BBX 6 7 0 -1
BITMAP
1C
30
E0
C0
70
18
0C
ENDCHAR
STARTCHAR =
ENCODING 61
SWIDTH 750 0
DWIDTH 6 0
BBX 5 3 0 2
BITMAP
F8
00
F8
ENDCHAR
STARTCHAR >
ENCODING 62
SWIDTH 750 0
DWIDTH 6 0
BBX 5 6 0 0
BITMAP
C0
60
38
18
30
E0
ENDCHAR
STARTCHAR ?
ENCODING 63
SWIDTH 750 0
DWIDTH 6 0
BBX 5 6 0 1
BITMAP
78
D8
30
30
00
30
ENDCHAR
STARTCHAR @
ENCODING 64
SWIDTH 1250 0
DWIDTH 10 0
BBX 9 6 0 1
BITMAP
3F00
6180
FF80
F780
7F00
3F00
ENDCHAR
STARTCHAR A
ENCODING 65
SWIDTH 1625 0
DWIDTH 13 0
BBX 12 11 0 0
BITMAP
0300
0700
0F00
0D80
1980
1980
30C0
3FC0
6060
C060
C030
ENDCHAR
STARTCHAR B
ENCODING 66
SWIDTH 1500 0
DWIDTH 12 0
BBX 11 11 0 0
BITMAP
FE00
C600
CC00
7E00
6380
60C0
6060
6060
6060
61C0
3F00
ENDCHAR
STARTCHAR C
ENCODING 67
SWIDTH 1500 0
DWIDTH 12 0
BBX 11 11 0 0
BITMAP
0F80
3800
6000
C000
C000
C000
C000
C000
C000
6060
3FC0
ENDCHAR
STARTCHAR D
ENCODING 68
SWIDTH 1500 0
DWIDTH 12 0
BBX 11 11 0 0
BITMAP
F800
6F80
60E0
6060
6060
6060
60C0
60C0
6180
6700
FC00
ENDCHAR
STARTCHAR E
ENCODING 69
SWIDTH 1375 0
DWIDTH 11 0
BBX 10 12 0 -1
BITMAP
FF80
6000
6000
7F00
6000
6000
6000
6000
6000
6000
6000
3FC0
ENDCHAR
STARTCHAR F
ENCODING 70
SWIDTH 1250 0
DWIDTH 10 0
BBX 9 10 0 1
BITMAP
FF80
C000
6000
7E00
6000
6000
6000
6000
6000
6000
ENDCHAR
STARTCHAR G
ENCODING 71
SWIDTH 1500 0
DWIDTH 12 0
BBX 11 11 0 0
BITMAP
0F80
3800
6000
C000
C000
C000
C0C0
C0C0
C0C0
6060
3FC0
ENDCHAR
STARTCHAR H
ENCODING 72
SWIDTH 1375 0
DWIDTH 11 0
BBX 10 11 0 0
BITMAP
C0C0
C0C0
C0C0
FFC0
C0C0
C0C0
C0C0
C0C0
C0C0
C0C0
C0C0
ENDCHAR
STARTCHAR I
ENCODING 73
SWIDTH 375 0
DWIDTH 3 0
BBX 2 10 0 1
BITMAP
C0
C0
C0
C0
C0
C0
C0
C0
C0
C0
ENDCHAR
STARTCHAR J
ENCODING 74
SWIDTH 1125 0
DWIDTH 9 0
BBX 8 11 0 0
BITMAP
03
03
03
03
03
03
03
03
03
CE
F8
ENDCHAR
STARTCHAR K
ENCODING 75
SWIDTH 1250 0
DWIDTH 10 0
BBX 9 11 0 0
BITMAP
C600
CC00
D800
D800
F000
E000
F000
D800
CC00
C700
0180
ENDCHAR
STARTCHAR L
ENCODING 76
SWIDTH 1125 0
DWIDTH 9 0
BBX 8 11 0 0
BITMAP
C0
C0
C0
C0
C0
C0
C0
C0
C0
C0
FF
ENDCHAR
STARTCHAR M
ENCODING 77
SWIDTH 1500 0
DWIDTH 12 0
BBX 11 10 0 0
BITMAP
E0C0
E0C0
E1C0
F3C0
F3C0
DBC0
DEC0
CEC0
CC60
00C0
ENDCHAR
STARTCHAR N
ENCODING 78
SWIDTH 1250 0
DWIDTH 10 0
BBX 9 10 0 1
BITMAP
C180
C180
E180
F180
F180
D980
CD80
C780
C780
C380
ENDCHAR
STARTCHAR O
ENCODING 79
SWIDTH 1625 0
DWIDTH 13 0
BBX 12 11 0 0
BITMAP
0F80
38E0
6070
6030
C030
C030
C030
C060
6060
31C0
1F00
ENDCHAR
STARTCHAR P
ENCODING 80
SWIDTH 1000 0
DWIDTH 8 0
BBX 7 12 0 -1
BITMAP
F8
CE
C6
CC
F8
C0
C0
C0
C0
C0
C0
C0
ENDCHAR
STARTCHAR Q
ENCODING 81
SWIDTH 1875 0
DWIDTH 15 0
BBX 14 12 0 -1
BITMAP
0F00
39C0
6060
C030
C030
C030
C060
C060
C0C0
6180
3F80
00FC
ENDCHAR
STARTCHAR R
ENCODING 82
SWIDTH 1125 0
DWIDTH 9 0
BBX 8 10 0 0
BITMAP
FE
C6
CC
F8
F0
F8
CC
CC
C6
C3
ENDCHAR
STARTCHAR S
ENCODING 83
SWIDTH 1500 0
DWIDTH 12 0
BBX 11 11 0 0
BITMAP
07C0
1C00
3000
3000
1FC0
00E0
0060
0060
C060
C0C0
7F80
ENDCHAR
STARTCHAR T
ENCODING 84
SWIDTH 1250 0
DWIDTH 10 0
BBX 9 9 0 1
BITMAP
FF80
1800
1800
1800
1800
1800
1800
1800
1800
ENDCHAR
STARTCHAR U
ENCODING 85
SWIDTH 1375 0
DWIDTH 11 0
BBX 10 11 0 0
BITMAP
00C0
30C0
60C0
60C0
60C0
C0C0
C0C0
C0C0
C1C0
63C0
7EC0
ENDCHAR
STARTCHAR V
ENCODING 86
SWIDTH 1250 0
DWIDTH 10 0
BBX 9 10 0 0
BITMAP
C180
6180
6300
3300
3600
1E00
1E00
1E00
0C00
0C00
ENDCHAR
STARTCHAR W
ENCODING 87
SWIDTH 1625 0
DWIDTH 13 0
BBX 12 11 0 0
BITMAP
0300
C330
6730
6730
6F60
3DE0
3DE0
38E0
18C0
18C0
1800
ENDCHAR
STARTCHAR X
ENCODING 88
SWIDTH 1250 0
DWIDTH 10 0
BBX 9 11 0 0
BITMAP
0180
6300
6300
3600
3C00
1C00
0C00
3E00
3300
6380
C180
ENDCHAR
STARTCHAR Y
ENCODING 89
SWIDTH 1375 0
DWIDTH 11 0
BBX 10 11 0 0
BITMAP
C0C0
6180
7180
3300
1E00
0E00
0C00
0C00
0C00
0C00
0C00
ENDCHAR
STARTCHAR Z
ENCODING 90
SWIDTH 1000 0
DWIDTH 8 0
BBX 7 10 0 0
BITMAP
C0
7E
06
0C
18
30
30
60
60
FE
ENDCHAR
STARTCHAR [
ENCODING 91
SWIDTH 500 0
DWIDTH 4 0
BBX 3 11 0 0
BITMAP
60
C0
C0
C0
C0
C0
C0
C0
C0
C0
E0
ENDCHAR
STARTCHAR \
ENCODING 92
SWIDTH 1250 0
DWIDTH 10 0
BBX 9 9 0 0
BITMAP
C000
C000
6000
3000
1800
0C00
0600
0300
0180
ENDCHAR
STARTCHAR ]
ENCODING 93
SWIDTH 500 0
DWIDTH 4 0
BBX 3 11 0 0
BITMAP
E0
60
60
60
60
60
60
60
60
60
C0
ENDCHAR
STARTCHAR ^
ENCODING 94
SWIDTH 875 0
DWIDTH 7 0
BBX 6 4 0 7
BITMAP
30
70
D8
CC
ENDCHAR
STARTCHAR _
ENCODING 95
SWIDTH 875 0
DWIDTH 7 0
BBX 6 1 0 -1
BITMAP
FC
ENDCHAR
STARTCHAR `
ENCODING 96
SWIDTH 625 0
DWIDTH 5 0
BBX 4 2 0 6
BITMAP
E0
70
ENDCHAR
STARTCHAR a
ENCODING 97
SWIDTH 750 0
DWIDTH 6 0
BBX 5 4 0 1
BITMAP
78
18
78
F8
ENDCHAR
STARTCHAR b
ENCODING 98
SWIDTH 875 0
DWIDTH 7 0
BBX 6 9 0 1
BITMAP
C0
C0
C0
C0
C0
FC
CC
CC
F8
ENDCHAR
STARTCHAR c
ENCODING 99
SWIDTH 750 0
DWIDTH 6 0
BBX 5 4 0 1
BITMAP
78
C0
C0
78
ENDCHAR
STARTCHAR d
ENCODING 100
SWIDTH 875 0
DWIDTH 7 0
BBX 6 8 0 1
BITMAP
0C
0C
0C
0C
7C
CC
CC
FC
ENDCHAR
STARTCHAR e
ENCODING 101
SWIDTH 750 0
DWIDTH 6 0
BBX 5 4 0 1
BITMAP
70
F8
C0
78
ENDCHAR
STARTCHAR f
ENCODING 102
SWIDTH 750 0
DWIDTH 6 0
BBX 5 9 0 1
BITMAP
38
60
60
60
60
F8
60
60
60
ENDCHAR
STARTCHAR g
ENCODING 103
SWIDTH 1000 0
DWIDTH 8 0
BBX 7 7 0 -1
BITMAP
7C
6C
78
60
7E
C6
7C
ENDCHAR
STARTCHAR h
ENCODING 104
SWIDTH 750 0
DWIDTH 6 0
BBX 5 9 0 1
BITMAP
C0
C0
C0
C0
C0
F8
D8
D8
D8
ENDCHAR
STARTCHAR i
ENCODING 105
SWIDTH 375 0
DWIDTH 3 0
BBX 2 7 0 1
BITMAP
C0
00
00
C0
C0
C0
C0
ENDCHAR
STARTCHAR j
ENCODING 106
SWIDTH 750 0
DWIDTH 6 0
BBX 5 13 0 -5
BITMAP
18
00
00
18
18
18
18
18
18
18
18
30
E0
ENDCHAR
STARTCHAR k
ENCODING 107
SWIDTH 875 0
DWIDTH 7 0
BBX 6 9 0 1
BITMAP
C0
C0
C0
C0
C0
F0
E0
E0
FC
ENDCHAR
STARTCHAR l
ENCODING 108
SWIDTH 375 0
DWIDTH 3 0
BBX 2 9 0 1
BITMAP
C0
C0
C0
C0
C0
C0
C0
C0
C0
ENDCHAR
STARTCHAR m
ENCODING 109
SWIDTH 1125 0
DWIDTH 9 0
BBX 8 4 0 1
BITMAP
FF
DB
DB
DB
ENDCHAR
STARTCHAR n
ENCODING 110
SWIDTH 750 0
DWIDTH 6 0
BBX 5 4 0 1
BITMAP
F8
D8
D8
D8
ENDCHAR
STARTCHAR o
ENCODING 111
SWIDTH 875 0
DWIDTH 7 0
BBX 6 4 0 1
BITMAP
78
CC
CC
78
ENDCHAR
STARTCHAR p
ENCODING 112
SWIDTH 875 0
DWIDTH 7 0
BBX 6 8 0 -3
BITMAP
F8
CC
CC
F8
C0
C0
C0
C0
ENDCHAR
STARTCHAR q
ENCODING 113
SWIDTH 750 0
DWIDTH 6 0
BBX 5 8 0 -3
BITMAP
78
D8
D8
F8
18
18
18
18
ENDCHAR
STARTCHAR r
ENCODING 114
SWIDTH 625 0
DWIDTH 5 0
BBX 4 4 0 1
BITMAP
F0
C0
C0
C0
ENDCHAR
STARTCHAR s
ENCODING 115
SWIDTH 750 0
DWIDTH 6 0
BBX 5 4 0 1
BITMAP
78
C0
F8
F0
ENDCHAR
STARTCHAR t
ENCODING 116
SWIDTH 750 0
DWIDTH 6 0
BBX 5 6 0 1
BITMAP
60
60
F8
60
60
70
ENDCHAR
STARTCHAR u
ENCODING 117
SWIDTH 750 0
DWIDTH 6 0
BBX 5 4 0 1
BITMAP
D8
D8
D8
F8
ENDCHAR
STARTCHAR v
ENCODING 118
SWIDTH 750 0
DWIDTH 6 0
BBX 5 4 0 1
BITMAP
D8
D8
70
60
ENDCHAR
STARTCHAR w
ENCODING 119
SWIDTH 1000 0
DWIDTH 8 0
BBX 7 4 0 1
BITMAP
DE
DE
7C
6C
ENDCHAR
STARTCHAR x
ENCODING 120
SWIDTH 875 0
DWIDTH 7 0
BBX 6 4 0 1
BITMAP
78
30
78
CC
ENDCHAR
STARTCHAR y
ENCODING 121
SWIDTH 875 0
DWIDTH 7 0
BBX 6 8 0 -3
BITMAP
6C
6C
7C
7C
0C
0C
18
F0
ENDCHAR
STARTCHAR z
ENCODING 122
SWIDTH 750 0
DWIDTH 6 0
BBX 5 4 0 1
BITMAP
78
30
60
F8
ENDCHAR
STARTCHAR {
ENCODING 123
SWIDTH 625 0
DWIDTH 5 0
BBX 4 11 0 -2
BITMAP
70
60
60
60
60
C0
60
60
60
60
30
ENDCHAR
STARTCHAR |
ENCODING 124
SWIDTH 375 0
DWIDTH 3 0
BBX 2 11 0 0
BITMAP
C0
C0
C0
C0
C0
C0
C0
C0
C0
C0
C0
ENDCHAR
STARTCHAR }
ENCODING 125
SWIDTH 625 0
DWIDTH 5 0
BBX 4 11 0 -2
BITMAP
C0
60
60
60
60
30
60
60
60
60
C0
ENDCHAR
STARTCHAR ~
ENCODING 126
SWIDTH 1000 0
DWIDTH 8 0
BBX 7 2 0 3
BITMAP
76
DC
ENDCHAR
ENDFONT
